<?xml version="1.0" encoding="iso-8859-1"?>
<!-- Uploaded to: SVG Repo, www.svgrepo.com, Generator: SVG Repo Mixer Tools -->
<svg fill="#000000" height="800px" width="800px" version="1.1" id="Capa_1" xmlns="http://www.w3.org/2000/svg" xmlns:xlink="http://www.w3.org/1999/xlink" 
	 viewBox="0 0 463 463" xml:space="preserve">
<g>
	<path d="M267.628,137.288H94.209c-4.142,0-7.5,3.358-7.5,7.5s3.358,7.5,7.5,7.5h173.419c4.142,0,7.5-3.358,7.5-7.5
		S271.771,137.288,267.628,137.288z"/>
	<path d="M460.407,295.83l-5.17-12.923c-5.535-13.837-18.742-22.778-33.645-22.778h-47.798c-14.904,0-28.11,8.941-33.646,22.78
		c-3.244,8.11-10.984,13.35-19.718,13.35h-51.962l-10.072-42.806h4.61c10.546,0,19.618-8.499,21.569-20.208l3.998-23.987
		c4.56-1.609,8.15-5.408,9.376-10.314l5.857-23.43c0.009-0.034,0.011-0.069,0.019-0.104c0.049-0.21,0.088-0.423,0.119-0.639
		c0.011-0.073,0.025-0.145,0.033-0.218c0.032-0.282,0.053-0.567,0.053-0.858V14.986c4.014-0.146,7.226-3.437,7.226-7.486
		c0-4.142-3.358-7.5-7.5-7.5H58.081c-4.142,0-7.5,3.358-7.5,7.5c0,4.049,3.212,7.341,7.226,7.486v158.707
		c0,0.291,0.021,0.576,0.053,0.858c0.008,0.073,0.023,0.146,0.033,0.218c0.031,0.216,0.07,0.429,0.119,0.639
		c0.008,0.034,0.011,0.069,0.019,0.104l5.858,23.43c1.226,4.907,4.816,8.706,9.376,10.314l3.998,23.987
		c1.952,11.709,11.022,20.208,21.569,20.208h4.611L93.37,296.258H36.403C16.331,296.258,0,312.588,0,332.661v72.258
		c0,20.073,16.331,36.403,36.403,36.403h21.403v6.952c0,8.12,6.606,14.726,14.726,14.726h216.774c8.12,0,14.726-6.606,14.726-14.726
		v-6.952h122.564c20.073,0,36.403-16.33,36.403-36.403v-95.63C463,304.658,462.127,300.13,460.407,295.83z M269.78,230.777
		c-0.729,4.375-3.641,7.674-6.773,7.674h-8.14l-3.597-15.29c-1.139-4.839-3.199-9.246-5.962-13.065h27.92L269.78,230.777z
		 M86.984,195.097h-7.226h-1.37l-3.476-13.903h212.014l-3.476,13.903h-1.37h-7.226h-59.021h-69.83H86.984z M72.806,166.193V87.258
		h216.226v78.935H72.806z M115.613,43.903v28.355h-13.903V43.903H115.613z M144.516,43.903v28.355h-13.903V43.903H144.516z
		 M173.419,43.903v28.355h-13.903V43.903H173.419z M202.322,43.903v28.355h-13.903V43.903H202.322z M231.226,43.903v28.355h-13.903
		V43.903H231.226z M260.129,43.903v28.355h-13.903V43.903H260.129z M289.032,43.903v28.355h-13.903V43.903H289.032z M86.709,72.258
		H72.806V43.903h13.903V72.258z M289.032,28.903H72.806V15h216.226V28.903z M98.831,238.452c-3.132,0-6.044-3.299-6.773-7.674
		l-3.447-20.681h27.92c-2.763,3.82-4.823,8.227-5.962,13.065l-3.597,15.29H98.831z M125.17,226.598
		c2.286-9.716,10.854-16.501,20.834-16.501h69.83c9.98,0,18.548,6.786,20.834,16.501l21.739,92.393
		c1.143,4.854,1.722,9.845,1.722,14.832v92.499H101.709v-92.499c0-4.987,0.579-9.978,1.722-14.832L125.17,226.598z M202.322,441.322
		V448h-42.806v-6.678H202.322z M15,404.919v-72.258c0-11.802,9.602-21.403,21.403-21.403h53.437l-1.011,4.297
		c-1.407,5.979-2.12,12.125-2.12,18.268v92.499H36.403C24.602,426.322,15,416.721,15,404.919z M72.806,441.322h21.403h50.307V448
		h-71.71V441.322z M289.032,448h-71.709v-6.678h50.307h21.403V448z M448,404.919c0,11.802-9.602,21.403-21.403,21.403H275.129
		v-92.499c0-6.143-0.713-12.289-2.12-18.268l-1.011-4.297h48.433c14.904,0,28.11-8.941,33.645-22.779
		c3.244-8.11,10.984-13.351,19.719-13.351h47.798c8.734,0,16.474,5.24,19.718,13.35l5.17,12.923
		c1.008,2.521,1.519,5.174,1.519,7.888V404.919z"/>
	<path d="M412.145,289.032h-28.903c-4.142,0-7.5,3.358-7.5,7.5c0,4.143,3.358,7.5,7.5,7.5h28.903c4.142,0,7.5-3.357,7.5-7.5
		C419.645,292.39,416.287,289.032,412.145,289.032z"/>
	<path d="M354.338,332.387c-17.502,0-32.155,12.417-35.622,28.903h-14.958c-4.142,0-7.5,3.358-7.5,7.5s3.358,7.5,7.5,7.5h14.958
		c3.467,16.486,18.12,28.903,35.622,28.903c20.073,0,36.403-16.33,36.403-36.403S374.411,332.387,354.338,332.387z M354.338,390.193
		c-11.802,0-21.403-9.601-21.403-21.403s9.602-21.403,21.403-21.403s21.403,9.602,21.403,21.403S366.14,390.193,354.338,390.193z"/>
	<path d="M153.564,412.419h54.709c12.958,0,23.5-10.542,23.5-23.5v-25.806c0-12.958-10.542-23.5-23.5-23.5h-54.709
		c-12.958,0-23.5,10.542-23.5,23.5v25.806C130.064,401.877,140.606,412.419,153.564,412.419z M173.968,397.419v-42.806h13.903
		v42.806H173.968z M216.774,363.113v25.806c0,4.687-3.813,8.5-8.5,8.5h-5.403v-42.806h5.403
		C212.961,354.613,216.774,358.425,216.774,363.113z M145.064,363.113c0-4.688,3.813-8.5,8.5-8.5h5.403v42.806h-5.403
		c-4.687,0-8.5-3.813-8.5-8.5V363.113z"/>
</g>
</svg>